<svg xmlns="http://www.w3.org/2000/svg" version="1.1" xmlns:xlink="http://www.w3.org/1999/xlink" xmlns:svgjs="http://svgjs.dev/svgjs" width="2000" height="343" viewBox="0 0 2000 343"><g transform="matrix(1,0,0,1,-1.2121212121212466,-0.6018185633225528)"><svg viewBox="0 0 396 68" data-background-color="#ffffff" preserveAspectRatio="xMidYMid meet" height="343" width="2000" xmlns="http://www.w3.org/2000/svg" xmlns:xlink="http://www.w3.org/1999/xlink"><g id="tight-bounds" transform="matrix(1,0,0,1,0.2400000000000091,0.11931096882196357)"><svg viewBox="0 0 395.52 67.76137806235606" height="67.76137806235606" width="395.52"><g><svg viewBox="0 0 488.70605682790216 83.72622339724602" height="67.76137806235606" width="395.52"><g transform="matrix(1,0,0,1,93.18605682790219,15.52251414081579)"><svg viewBox="0 0 395.52 52.681195115614436" height="52.681195115614436" width="395.52"><g id="textblocktransform"><svg viewBox="0 0 395.52 52.681195115614436" height="52.681195115614436" width="395.52" id="textblock"><g><svg viewBox="0 0 395.52 52.681195115614436" height="52.681195115614436" width="395.52"><g transform="matrix(1,0,0,1,0,0)"><svg width="395.52" viewBox="3.59 -37.55 281.89000000000004 37.55" height="52.681195115614436" data-palette-color="#2f84ff"><path d="M38.57-23.24L38.57-20.36Q38.57-18.19 38.04-16.48 37.5-14.77 36.58-13.46 35.67-12.16 34.47-11.23 33.28-10.3 31.97-9.72 30.66-9.13 29.33-8.86 28-8.59 26.83-8.59L26.83-8.59 12.48-8.59 12.48-14.94 26.83-14.94Q28.05-15.04 29.04-15.44 30.03-15.84 30.74-16.53 31.45-17.21 31.84-18.18 32.23-19.14 32.23-20.36L32.23-20.36 32.23-23.24Q32.1-24.44 31.71-25.44 31.32-26.44 30.65-27.15 29.98-27.86 29.03-28.26 28.08-28.66 26.83-28.66L26.83-28.66 12.52-28.66Q11.25-28.66 10.6-28 9.94-27.34 9.94-26.1L9.94-26.1 9.94 0 3.59 0 3.59-26.1Q3.59-28.54 4.48-30.25 5.37-31.96 6.7-33.01 8.03-34.06 9.59-34.53 11.16-35.01 12.48-35.01L12.48-35.01 26.83-35.01Q28.98-35.01 30.69-34.46 32.4-33.91 33.7-33 35.01-32.08 35.93-30.88 36.84-29.69 37.44-28.38 38.04-27.08 38.31-25.74 38.57-24.41 38.57-23.24L38.57-23.24ZM49.73-37.55L49.73-31.81 43.38-31.81 43.38-37.55 49.73-37.55ZM49.73-26.39L49.73 0 43.38 0 43.38-26.39 49.73-26.39ZM79.8-26.39L79.8-20.04 68.72-20.04 68.72 0 62.3 0 62.3-20.04 54.05-20.04 54.05-26.39 62.3-26.39 62.3-35.01 68.72-35.01 68.72-26.39 79.8-26.39ZM109.44-6.35L109.44 0 92.23 0Q90.91 0 89.35-0.46 87.79-0.93 86.45-1.99 85.12-3.05 84.23-4.75 83.34-6.45 83.34-8.91L83.34-8.91 83.34-17.5Q83.34-18.41 83.55-19.41 83.76-20.41 84.2-21.4 84.64-22.39 85.33-23.29 86.03-24.19 87.02-24.88 88.01-25.56 89.3-25.98 90.59-26.39 92.23-26.39L92.23-26.39 109.44-26.39 109.44-20.04 92.23-20.04Q90.98-20.04 90.34-19.41 89.69-18.77 89.69-17.46L89.69-17.46 89.69-8.91Q89.69-7.67 90.35-7.01 91.01-6.35 92.28-6.35L92.28-6.35 109.44-6.35ZM144.03-17.5L144.03 0 137.69 0 137.69-17.5Q137.69-18.75 137.05-19.4 136.42-20.04 135.15-20.04L135.15-20.04 123.7-20.04 123.7-26.39 135.15-26.39Q136.05-26.39 137.05-26.18 138.05-25.98 139.04-25.54 140.03-25.1 140.93-24.4 141.84-23.71 142.52-22.72 143.2-21.73 143.62-20.43 144.03-19.14 144.03-17.5L144.03-17.5ZM121.13-37.55L121.13 0 114.78 0 114.78-37.55 121.13-37.55ZM185.49-20.36L185.49-14.65Q185.49-11.45 184.37-8.76 183.26-6.08 181.31-4.14 179.36-2.2 176.67-1.1 173.99 0 170.84 0L170.84 0 153.7 0Q153.01 0 152.43-0.24 151.84-0.49 151.42-0.92 150.99-1.34 150.74-1.93 150.5-2.51 150.5-3.2L150.5-3.2 150.5-31.81Q150.5-32.47 150.74-33.06 150.99-33.64 151.42-34.08 151.84-34.52 152.43-34.77 153.01-35.01 153.7-35.01L153.7-35.01 170.84-35.01Q173.99-35.01 176.67-33.91 179.36-32.81 181.31-30.87 183.26-28.93 184.37-26.23 185.49-23.54 185.49-20.36L185.49-20.36ZM179.14-14.65L179.14-20.36Q179.14-22.22 178.54-23.75 177.94-25.29 176.84-26.38 175.74-27.47 174.22-28.06 172.69-28.66 170.84-28.66L170.84-28.66 156.85-28.66 156.85-6.35 170.84-6.35Q172.69-6.35 174.22-6.95 175.74-7.54 176.84-8.63 177.94-9.72 178.54-11.24 179.14-12.77 179.14-14.65L179.14-14.65ZM219.39-17.65L219.39-17.65Q219.39-16.33 218.93-14.81 218.47-13.28 217.43-11.98 216.39-10.67 214.72-9.79 213.05-8.91 210.65-8.91L210.65-8.91 199.2-8.91 199.2-14.94 210.65-14.94Q211.95-14.94 212.66-15.73 213.36-16.53 213.36-17.7L213.36-17.7Q213.36-18.95 212.57-19.65 211.78-20.36 210.65-20.36L210.65-20.36 199.2-20.36Q197.91-20.36 197.2-19.57 196.49-18.77 196.49-17.6L196.49-17.6 196.49-8.74Q196.49-7.47 197.29-6.76 198.08-6.05 199.25-6.05L199.25-6.05 210.65-6.05 210.65 0 199.2 0Q197.89 0 196.36-0.46 194.83-0.93 193.53-1.97 192.22-3 191.34-4.68 190.46-6.35 190.46-8.74L190.46-8.74 190.46-17.65Q190.46-18.97 190.93-20.5 191.39-22.02 192.43-23.33 193.47-24.63 195.14-25.51 196.81-26.39 199.2-26.39L199.2-26.39 210.65-26.39Q211.97-26.39 213.5-25.93 215.02-25.46 216.33-24.43 217.64-23.39 218.52-21.72 219.39-20.04 219.39-17.65ZM249.23-6.35L249.23 0 232.01 0Q230.7 0 229.13-0.46 227.57-0.93 226.24-1.99 224.91-3.05 224.02-4.75 223.13-6.45 223.13-8.91L223.13-8.91 223.13-17.5Q223.13-18.41 223.33-19.41 223.54-20.41 223.98-21.4 224.42-22.39 225.12-23.29 225.81-24.19 226.8-24.88 227.79-25.56 229.08-25.98 230.38-26.39 232.01-26.39L232.01-26.39 249.23-26.39 249.23-20.04 232.01-20.04Q230.77-20.04 230.12-19.41 229.47-18.77 229.47-17.46L229.47-17.46 229.47-8.91Q229.47-7.67 230.13-7.01 230.79-6.35 232.06-6.35L232.06-6.35 249.23-6.35ZM270.54-14.4L285.48 0 276.32 0 263.53-12.35Q262.46-13.33 262.53-14.79L262.53-14.79Q262.58-15.48 262.88-16.08 263.19-16.67 263.73-17.09L263.73-17.09 275.32-26.44 285.48-26.44 270.54-14.4ZM260.92-37.55L260.92 0 254.57 0 254.57-37.55 260.92-37.55Z" opacity="1" transform="matrix(1,0,0,1,0,0)" fill="#2f84ff" class="wordmark-text-0" data-fill-palette-color="primary" id="text-0"></path></svg></g></svg></g></svg></g></svg></g><g><svg viewBox="0 0 80.7492910097884 83.72622339724602" height="83.72622339724602" width="80.7492910097884"><g><svg xmlns="http://www.w3.org/2000/svg" xmlns:xlink="http://www.w3.org/1999/xlink" version="1.1" x="0" y="0" viewBox="6.6 5 86.80000000000001 90" enable-background="new 0 0 100 100" xml:space="preserve" height="83.72622339724602" width="80.7492910097884" class="icon-icon-0" data-fill-palette-color="accent" id="icon-0"><path d="M52.3 67.8H45.5C40.3 67.8 36.1 63.6 36.1 58.4V51.6C36.1 46.4 40.3 42.2 45.5 42.2H52.3C57.5 42.2 61.7 46.4 61.7 51.6V58.4C61.7 63.6 57.5 67.8 52.3 67.8" fill="#2f84ff" data-fill-palette-color="accent"></path><path d="M38.7 66.9C37 65.5 35.7 63.8 34.9 61.7L23 71.2C22.1 70.8 21.1 70.5 20 70.5 16 70.5 12.7 73.8 12.7 77.8S16 85.1 20 85.1 27.3 81.8 27.3 77.8C27.3 77.3 27.2 76.7 27.1 76.2z" fill="#2f84ff" data-fill-palette-color="accent"></path><path d="M83 5C77.3 5 72.6 9.7 72.6 15.4 72.6 16.9 72.9 18.3 73.5 19.6L55.2 40.8C58.1 41.9 60.5 43.9 62 46.5L79.5 25.2C80.6 25.6 81.8 25.8 83 25.8 88.7 25.8 93.4 21.1 93.4 15.4S88.7 5 83 5" fill="#2f84ff" data-fill-palette-color="accent"></path><path d="M78.9 74.1C77.1 74.1 75.4 74.6 73.9 75.4L61.7 64C60.5 65.8 58.9 67.3 57 68.4L69.5 80.2C68.9 81.5 68.5 83.1 68.5 84.6 68.5 90.3 73.2 95 78.9 95S89.3 90.3 89.3 84.6C89.3 78.8 84.6 74.1 78.9 74.1" fill="#2f84ff" data-fill-palette-color="accent"></path><path d="M25 26.5C25.4 25.4 25.6 24.3 25.6 23.1 25.6 17.9 21.3 13.6 16.1 13.6S6.6 17.9 6.6 23.1 10.9 32.6 16.1 32.6C17.8 32.6 19.4 32.1 20.8 31.3L36.1 46C37.3 44.2 39 42.7 40.9 41.6z" fill="#2f84ff" data-fill-palette-color="accent"></path></svg></g></svg></g></svg></g><defs></defs></svg><rect width="395.52" height="67.76137806235606" fill="none" stroke="none" visibility="hidden"></rect></g></svg></g></svg>